<svg xmlns="http://www.w3.org/2000/svg" viewBox="0 0 512 512" role="img" aria-label="Rolling Wrench AI">
  <defs>
    <linearGradient id="g" x1="0" y1="0" x2="1" y2="1">
      <stop offset="0" stop-color="#7dff9a"/>
      <stop offset=".45" stop-color="#00e66d"/>
      <stop offset="1" stop-color="#007a3d"/>
    </linearGradient>
    <linearGradient id="steel" x1="0" y1="0" x2="1" y2="1">
      <stop offset="0" stop-color="#e7eef0"/><stop offset=".35" stop-color="#728084"/><stop offset=".7" stop-color="#11181b"/><stop offset="1" stop-color="#f0f4f5"/>
    </linearGradient>
    <filter id="glow"><feGaussianBlur stdDeviation="6" result="b"/><feMerge><feMergeNode in="b"/><feMergeNode in="SourceGraphic"/></feMerge></filter>
  </defs>
  <path d="M256 28 455 92v144c0 128-83 211-199 248C140 447 57 364 57 236V92Z" fill="#07120d" stroke="url(#g)" stroke-width="18"/>
  <path d="M98 122 256 72l158 50v108c0 104-61 174-158 209-97-35-158-105-158-209Z" fill="#050807" stroke="#1d3b2b" stroke-width="6"/>
  <path d="M130 336 339 127c20-20 54-19 73 2l-60 22-24 62 62-24 22-60c21 20 22 53 2 73L205 411Z" fill="url(#steel)" opacity=".94"/>
  <path d="M114 176 176 114l222 222-62 62Z" fill="#111" stroke="#00e66d" stroke-width="10" opacity=".92"/>
  <text x="256" y="286" text-anchor="middle" font-family="Arial Black, Arial" font-size="118" fill="url(#g)" stroke="#001b0b" stroke-width="4" filter="url(#glow)">RW</text>
  <text x="256" y="342" text-anchor="middle" font-family="Arial Black, Arial" font-size="34" fill="#ffffff" letter-spacing="4">DIESEL</text>
</svg>
